<svg xmlns="http://www.w3.org/2000/svg" width="32" height="32" viewBox="0 0 32 32">
    <g fill="none" fill-rule="evenodd">
        <circle cx="16" cy="16" r="15" fill="#FF0048" fill-rule="nonzero"/>
        <g>
            <path d="M0 0L24 0 24 24 0 24z" transform="translate(4 4)"/>
            <path fill="#FFF" fill-rule="nonzero" d="M18.3 5.71c-.39-.39-1.02-.39-1.41 0L12 9.5 7.11 5.7c-.39-.39-1.02-.39-1.41 0-.39.39-.39 1.02 0 1.41L9.5 12l-3.8 4.89c-.39.39-.39 1.02 0 1.41.39.39 1.02.39 1.41 0L12 14.5l4.89 3.8c.39.39 1.02.39 1.41 0 .39-.39.39-1.02 0-1.41L14.5 12l3.8-4.89c.38-.38.38-1.02 0-1.4z" transform="translate(4 4)"/>
        </g>
    </g>
</svg>
